<svg xmlns="http://www.w3.org/2000/svg" xmlns:xlink="http://www.w3.org/1999/xlink" width="640" height="320" viewBox="0 0 640 320"><path opacity=".46" fill="#fff" d="M59.392 292.86c1.737.627 3.507 1.295 5.23 1.92 7.223 2.677 14.707 5.444 20.54 6.657l.052.015c2.31.38 4.615.568 6.875.568 5.25 0 10.08-1.09 13.603-3.092 3.722-2.092 5.854-5.117 5.997-8.51l.106-2.29-1.827 1.416c-2.494 1.934-6.34 2.973-11.12 2.973-2.582 0-5.403-.307-8.37-.924-6.433-1.57-13.204-4.648-19.748-7.622-.886-.404-1.784-.808-2.675-1.215 9.08-7.94 23.486-8.886 33.697-8.886 3.147 0 6.048.1 8.62.184 1.863.063 3.472.12 4.886.12 30.527.23 38.99-6.127 41.73-8.19 3.61-2.668 8.253-7.5 7.39-15.24-2.885 3.647-9.276 6.838-15.598 8.416-6.57 1.642-14.51 2.466-23.57 2.466-5.01 0-10.315-.27-15.762-.783-9.847-.825-16.995-1.177-23.174-1.177-20.357 0-32.708 4.233-41.077 14.14-6.646-2.513-13.087-3.788-19.154-3.788-5.28 0-10.1 1-14.33 2.957-4.098 1.91-7.667 4.752-10.632 8.457 1.092-8.556 6.098-16.335 14.336-22.23 12.146-8.67 30.492-13.052 54.53-13.052 7.298 0 15.167.413 23.41 1.236 9.656 1.078 18.632 1.636 26.713 1.636 13.917 0 25.528-1.63 34.576-4.803 7.37-2.613 13.077-6.274 16.95-10.887 2.247-2.68 3.606-5.396 4.4-7.958V213.84c-5.894 14.897-20.877 20.73-46.07 20.73-9.45 0-20.583-.768-34.005-2.34-1.642-.183-3.518-.398-5.504-.638-9.677-1.138-22.927-2.725-37.2-2.725-14.233 0-26.645 1.636-36.86 4.873-6.153 1.95-11.615 4.502-16.36 7.646V319h6.43c-3.485-7.458-3.832-14.52-.852-20.46 3.85-7.707 12.966-12.488 23.787-12.488 2.74 0 5.526.297 8.313.893-4.97 14.835-2.04 25.352 1.952 32.055h14.943c-1.226-6.863-.806-16.03 4.82-26.14z"/><path d="M182.128 8.452v1.843c0 .295-.24.535-.535.535h-1.804c-.297 0-.537-.24-.537-.535V8.452c0-.296.24-.535.536-.535h1.803c.296 0 .535.24.535.535zm-6.91 9.083c1.358 0 2.458-1.1 2.458-2.458s-1.1-2.458-2.458-2.458c-1.357 0-2.458 1.1-2.458 2.457s1.1 2.458 2.458 2.458zM190 15c0 8.284-6.716 15-15 15s-15-6.716-15-15 6.716-15 15-15 15 6.716 15 15zm-6.347-2.423h-4.928c.502.706.8 1.568.8 2.5 0 2.384-1.934 4.316-4.318 4.316-2.384 0-4.316-1.933-4.316-4.316 0-.932.297-1.794.8-2.5h-4.907v7.565c0 1.843 1.494 3.337 3.336 3.337h10.196c1.843 0 3.336-1.495 3.336-3.338v-7.565zm-8.446 5.825c1.834 0 3.326-1.49 3.326-3.325 0-.996-.44-1.89-1.136-2.5-.244-.213-.52-.392-.817-.528-.42-.19-.883-.298-1.373-.298s-.953.106-1.372.297c-.3.135-.574.314-.818.527-.696.61-1.136 1.504-1.136 2.5.002 1.834 1.494 3.325 3.327 3.325zm8.446-8.544c0-1.843-1.494-3.337-3.336-3.337H171.2v4.208h-.685V6.52h-.395c-.026 0-.05.002-.077.003v4.204h-.684V6.61c-.167.038-.328.09-.482.15v3.967h-.684V7.135c-.853.604-1.41 1.598-1.41 2.723v2.19h5.35c.782-.794 1.87-1.287 3.074-1.287 1.204 0 2.292.494 3.076 1.29h5.37V9.857z"/><path d="M135 0c-8.284 0-15 6.716-15 15s6.716 15 15 15 15-6.716 15-15-6.716-15-15-15zm-4.688 23.472h-3.52V12.154h3.52v11.318zm-1.76-12.865c-1.126 0-2.038-.914-2.038-2.04 0-1.125.912-2.04 2.04-2.04 1.124 0 2.038.915 2.038 2.04 0 1.126-.915 2.04-2.04 2.04zm14.934 12.865h-3.514v-5.504c0-1.313-.026-3-1.828-3-1.83 0-2.11 1.43-2.11 2.905v5.6h-3.517v-11.32h3.375V13.7h.048c.47-.89 1.617-1.828 3.33-1.828 3.558 0 4.216 2.344 4.216 5.392v6.208z"/><path d="M97.303 17.253c-.34 0-.632.217-.847.48v-2.237h-.962v6.946h.962v-.394c.266.33.556.458.905.458.635 0 .872-.492.872-1.126v-2.843c0-.695-.23-1.284-.93-1.284zm-.052 3.988c0 .164-.026.282-.082.354-.105.138-.333.13-.487.053-.072-.037-.147-.097-.225-.18v-3.193c.064-.07.13-.123.196-.156.168-.084.383-.068.498.084.068.09.102.22.102.394v2.645zm-3.208-10.075V8.662c0-.295.136-.513.417-.513.306 0 .437.21.437.512v2.502c0 .293-.15.51-.418.51-.277 0-.438-.226-.438-.51zm-.43 6.153h.953v5.124h-.953v-.565c-.175.208-.358.367-.548.476-.514.294-1.218.288-1.218-.75v-4.284h.953v3.927c0 .206.05.345.252.345.186 0 .444-.238.56-.384v-3.89zm-1.754-.815h-1.11v5.938h-1.073v-5.937h-1.11v-1.008h3.292v1.008zm8.54.685c-.86 0-1.448.618-1.448 1.507v2.3c0 .922.465 1.585 1.375 1.585 1.004 0 1.428-.598 1.428-1.585v-.385h-.98v.356c0 .446-.024.716-.426.716-.384 0-.416-.333-.416-.716V20h1.823v-1.305c0-.926-.44-1.507-1.356-1.507zm.375 2.017h-.842v-.52c0-.35.073-.6.426-.6.343 0 .417.255.417.6v.52zM95 0c-8.284 0-15 6.716-15 15s6.716 15 15 15 15-6.716 15-15-6.716-15-15-15zm1.766 7.172h1v4.125c0 .216.052.362.267.362.195 0 .466-.25.588-.404V7.172h1v5.38h-1v-.594c-.433.514-.853.67-1.155.67-.536 0-.7-.428-.7-.96V7.172zm-2.287-.045c.81 0 1.437.604 1.437 1.446v2.637c0 .904-.633 1.44-1.438 1.44-.97 0-1.467-.492-1.467-1.44V8.573c0-.863.585-1.446 1.466-1.446zM90.42 5.26l.778 2.914.722-2.915h1.145l-1.31 4.334v2.958h-1.128V9.594l-1.34-4.335h1.134zm12.842 16.605c0 1.267-1.027 2.294-2.294 2.294h-11.79c-1.268 0-2.294-1.028-2.294-2.295V16.07c0-1.267 1.027-2.293 2.293-2.293h11.79c1.268 0 2.295 1.027 2.295 2.293v5.795z"/><path d="M55 0c-8.284 0-15 6.716-15 15 0 8.285 6.716 15 15 15s15-6.715 15-15c0-8.284-6.716-15-15-15zm4.44 8.825h-2.097c-.74 0-.895.303-.895 1.07v1.85h2.99l-.287 3.247H56.45v9.7h-3.874v-9.66H50.56v-3.288h2.014v-2.59c0-2.43 1.3-3.7 4.182-3.7h2.682v3.37z"/><path d="M15 0C6.716 0 0 6.716 0 15s6.716 15 15 15 15-6.716 15-15S23.284 0 15 0zm7.543 12.416c.22 4.893-3.43 10.35-9.888 10.35-1.965 0-3.793-.577-5.333-1.564 1.846.218 3.688-.294 5.15-1.44-1.522-.028-2.807-1.034-3.25-2.417.545.104 1.082.074 1.57-.06-1.672-.335-2.827-1.843-2.79-3.455.47.26 1.006.417 1.576.436C8.028 13.23 7.59 11.184 8.5 9.62c1.717 2.106 4.28 3.49 7.17 3.636-.506-2.176 1.145-4.27 3.39-4.27 1 0 1.905.42 2.54 1.098.792-.156 1.537-.446 2.21-.844-.26.812-.812 1.494-1.53 1.924.703-.083 1.374-.27 1.998-.547-.465.695-1.054 1.308-1.735 1.8z"/><g fill="#862633"><path d="M6 50h30v4H6zM6 68h30v4H6zM6 59h30v4H6z"/></g><path fill="none" d="M0 40h42v42H0zM42 40h42v42H42z"/><path fill-rule="evenodd" clip-rule="evenodd" fill="#fff" d="M65.122 63.12v3.76c0 1.17-.95 2.12-2.12 2.12s-2.122-.95-2.122-2.12v-3.76h-3.76c-1.17 0-2.12-.948-2.12-2.12 0-1.17.95-2.12 2.12-2.12h3.76v-3.76c0-1.17.95-2.12 2.12-2.12s2.122.95 2.122 2.12v3.76h3.757c1.17 0 2.12.95 2.12 2.12 0 1.172-.95 2.12-2.12 2.12H65.12zM107.122 59h3.757c1.17 0 2.12.95 2.12 2.12 0 1.172-.95 2.12-2.12 2.12H99.12c-1.17 0-2.12-.948-2.12-2.12 0-1.17.95-2.12 2.12-2.12H107.123z"/><path fill="none" d="M84 40h42v42H84z"/><path fill="#CDCCC9" d="M32 112.002l-5.733-5.733c1.08-1.484 1.716-3.308 1.716-5.278 0-4.958-4.034-8.99-8.99-8.99C14.032 92 10 96.033 10 100.99c0 4.957 4.034 8.99 8.992 8.99 1.88 0 3.625-.58 5.07-1.568l5.763 5.764L32 112.002zm-19.363-11.01c0-3.505 2.85-6.355 6.355-6.355 3.504 0 6.354 2.85 6.354 6.354 0 3.505-2.85 6.356-6.354 6.356-3.505 0-6.355-2.85-6.355-6.355z"/><path fill="none" d="M0 82h42v42H0z"/><path fill="#fff" d="M418.557 10.142v2.212c0 .354-.293.64-.646.64h-2.16c-.355 0-.642-.286-.642-.64v-2.212c0-.354.287-.644.64-.644h2.163c.354 0 .647.29.647.644zm-8.293 10.9c1.627 0 2.95-1.32 2.95-2.95 0-1.627-1.323-2.95-2.95-2.95-1.633 0-2.95 1.323-2.95 2.95 0 1.63 1.317 2.95 2.95 2.95zM427.998 18c0 9.942-8.058 18-18 18-9.937 0-18-8.058-18-18s8.063-18 18-18c9.942 0 18 8.058 18 18zm-7.612-2.906h-5.912c.602.847.957 1.88.957 2.998 0 2.86-2.318 5.18-5.184 5.18-2.858 0-5.178-2.318-5.178-5.18 0-1.117.355-2.15.957-2.998h-5.885v9.077c0 2.213 1.793 4.006 4.005 4.006h12.235c2.213 0 4.005-1.793 4.005-4.005v-9.076zm-10.14 6.988c2.203 0 3.994-1.79 3.994-3.99 0-1.195-.53-2.268-1.365-2.998-.29-.257-.625-.47-.98-.634-.502-.23-1.06-.358-1.648-.358-.582 0-1.14.13-1.64.358-.364.163-.692.376-.983.634-.836.73-1.364 1.803-1.364 2.998 0 2.2 1.79 3.99 3.986 3.99zm10.14-10.252c0-2.212-1.792-4.005-4.005-4.005h-10.938v5.047h-.824V7.825h-.472c-.032 0-.062 0-.095.002v5.045h-.817v-4.94c-.2.046-.392.106-.582.183v4.757h-.817v-4.31c-1.023.725-1.69 1.917-1.69 3.268v2.63h6.415c.94-.956 2.246-1.546 3.69-1.546 1.448 0 2.755.59 3.69 1.546h6.448v-2.63z"/><path fill="#fff" d="M316.765 20.704c-.41 0-.76.26-1.017.572v-2.68h-1.155v8.333h1.155v-.474c.318.398.667.55 1.087.55.76 0 1.044-.59 1.044-1.35v-3.414c0-.83-.28-1.538-1.115-1.538zm-.063 4.785c0 .194-.033.335-.1.422-.126.167-.398.158-.585.064-.087-.045-.178-.117-.27-.218v-3.832c.076-.083.156-.146.234-.186.203-.102.46-.083.598.102.083.107.123.265.123.47v3.177h.002zm-3.85-12.093v-3.003c0-.354.16-.616.498-.616.368 0 .526.256.526.616v3.003c0 .352-.18.612-.5.612-.333 0-.525-.274-.525-.613zm-.517 7.384h1.143v6.15h-1.143v-.68c-.21.252-.43.44-.66.573-.615.353-1.46.347-1.46-.9V20.78h1.143v4.714c0 .247.06.416.303.416.225 0 .536-.285.675-.46v-4.67zm-2.105-.975h-1.333v7.125h-1.287v-7.125h-1.333v-1.21h3.952v1.21zm10.248.82c-1.032 0-1.736.744-1.736 1.81v2.76c0 1.106.56 1.9 1.65 1.9 1.203 0 1.71-.715 1.71-1.9v-.462h-1.175v.427c0 .537-.027.86-.51.86-.462 0-.5-.397-.5-.86V24h2.186v-1.565c0-1.112-.53-1.81-1.625-1.81zm.45 2.42h-1.01v-.622c0-.422.087-.72.51-.72.41 0 .5.304.5.72v.622zM313.997 0c-9.938 0-18 8.058-18 18s8.062 18 18 18C323.942 36 332 27.942 332 18s-8.06-18-18-18zm2.12 8.607h1.2v4.948c0 .26.064.436.32.436.236 0 .56-.3.708-.484v-4.9h1.2v6.457h-1.2v-.714c-.52.616-1.026.805-1.388.805-.645 0-.84-.514-.84-1.15V8.606zm-2.743-.053c.972 0 1.725.724 1.725 1.733v3.165c0 1.085-.76 1.73-1.725 1.73-1.164 0-1.76-.592-1.76-1.73v-3.165c.002-1.036.703-1.733 1.76-1.733zm-4.87-2.243l.933 3.5.865-3.5h1.373l-1.57 5.203v3.55h-1.354v-3.55l-1.61-5.202h1.364zm15.408 19.93c0 1.518-1.232 2.75-2.75 2.75h-14.15c-1.52 0-2.753-1.232-2.753-2.75v-6.956c0-1.52 1.232-2.75 2.753-2.75h14.15c1.518 0 2.75 1.232 2.75 2.75v6.955z"/><path fill="#fff" d="M266 0c-9.94 0-18 8.058-18 18 0 9.943 8.06 18 18 18s18-8.057 18-18c0-9.942-8.06-18-18-18zm5.328 10.588h-2.515c-.89 0-1.073.365-1.073 1.283v2.223h3.588l-.346 3.895h-3.242V29.63h-4.65V18.04h-2.416v-3.945h2.416v-3.108c0-2.917 1.56-4.44 5.02-4.44h3.218v4.043z"/><path fill="#fff" d="M218 0c-9.942 0-18 8.058-18 18s8.058 18 18 18 18-8.058 18-18-8.058-18-18-18zm9.052 14.9c.264 5.872-4.115 12.417-11.866 12.417-2.357 0-4.552-.69-6.4-1.876 2.216.263 4.427-.352 6.18-1.727-1.824-.034-3.367-1.242-3.897-2.9.653.125 1.294.088 1.884-.07-2.007-.405-3.394-2.214-3.35-4.148.563.313 1.208.502 1.893.523-1.86-1.244-2.387-3.7-1.293-5.574 2.062 2.524 5.138 4.187 8.606 4.36-.61-2.61 1.372-5.126 4.066-5.126 1.203 0 2.286.507 3.05 1.318.95-.186 1.843-.534 2.65-1.01-.312.972-.975 1.792-1.837 2.307.844-.1 1.65-.327 2.398-.656-.56.837-1.27 1.573-2.086 2.163z"/><path fill="#fff" d="M622.13 8.452v1.843c0 .295-.24.535-.536.535h-1.805c-.296 0-.536-.24-.536-.535V8.452c0-.296.24-.535.535-.535h1.804c.295 0 .535.24.535.535zm-6.91 9.083c1.356 0 2.456-1.1 2.456-2.458s-1.1-2.458-2.457-2.458-2.46 1.1-2.46 2.457 1.1 2.458 2.46 2.458zM630 15c0 8.284-6.716 15-15 15s-15-6.716-15-15 6.716-15 15-15 15 6.716 15 15zm-6.347-2.423h-4.928c.502.706.8 1.568.8 2.5 0 2.384-1.934 4.316-4.318 4.316-2.384 0-4.316-1.933-4.316-4.316 0-.932.298-1.794.8-2.5h-4.906v7.565c0 1.843 1.494 3.337 3.337 3.337h10.197c1.844 0 3.337-1.495 3.337-3.338v-7.565zm-8.446 5.825c1.834 0 3.326-1.49 3.326-3.325 0-.996-.44-1.89-1.137-2.5-.243-.213-.52-.392-.816-.528-.42-.19-.884-.298-1.373-.298-.488 0-.953.106-1.37.297-.3.135-.575.314-.82.527-.694.61-1.135 1.504-1.135 2.5 0 1.834 1.492 3.325 3.325 3.325zm8.446-8.544c0-1.843-1.493-3.337-3.337-3.337H611.2v4.208h-.685V6.52h-.396c-.027 0-.052.002-.078.003v4.204h-.684V6.61c-.166.038-.327.09-.482.15v3.967h-.684V7.135c-.854.604-1.41 1.598-1.41 2.723v2.19h5.35c.782-.794 1.87-1.287 3.074-1.287 1.204 0 2.293.494 3.076 1.29h5.37V9.857z"/><path fill="#fff" d="M537.303 17.253c-.34 0-.632.217-.847.48v-2.237h-.962v6.946h.962v-.394c.266.33.556.458.905.458.634 0 .872-.492.872-1.126v-2.843c0-.695-.23-1.284-.93-1.284zm-.05 3.988c0 .164-.028.282-.084.354-.105.138-.334.13-.488.053-.072-.037-.148-.097-.226-.18v-3.193c.064-.07.13-.123.196-.156.167-.084.383-.068.497.084.067.09.102.22.102.394v2.645zm-3.21-10.075V8.662c0-.295.135-.513.416-.513.306 0 .437.21.437.512v2.502c0 .293-.15.51-.42.51-.274 0-.434-.226-.434-.51zm-.432 6.153h.954v5.124h-.953v-.565c-.174.208-.356.367-.546.476-.514.294-1.22.288-1.22-.75v-4.284h.954v3.927c0 .206.05.345.253.345.187 0 .445-.238.56-.384v-3.89zm-1.752-.815h-1.11v5.938h-1.072v-5.937h-1.11v-1.008h3.293v1.008h-.002zm8.54.685c-.86 0-1.447.618-1.447 1.507v2.3c0 .922.466 1.585 1.375 1.585 1.005 0 1.428-.598 1.428-1.585v-.385h-.98v.356c0 .446-.023.716-.425.716-.385 0-.416-.333-.416-.716V20h1.82v-1.305c0-.926-.44-1.507-1.355-1.507zm.375 2.017h-.842v-.52c0-.35.073-.6.426-.6.343 0 .417.255.417.6v.52zM535 0c-8.284 0-15 6.716-15 15s6.716 15 15 15 15-6.716 15-15-6.716-15-15-15zm1.766 7.172h1v4.125c0 .216.053.362.268.362.195 0 .466-.25.588-.404V7.172h1v5.38h-1v-.594c-.434.514-.854.67-1.156.67-.536 0-.7-.428-.7-.96V7.172zm-2.287-.045c.81 0 1.437.604 1.437 1.446v2.637c0 .904-.634 1.44-1.438 1.44-.97 0-1.466-.492-1.466-1.44V8.573c0-.863.584-1.446 1.465-1.446zm-4.06-1.868l.777 2.914.723-2.915h1.145l-1.31 4.334v2.958h-1.128V9.594l-1.34-4.335h1.134zm12.842 16.605c0 1.267-1.027 2.294-2.293 2.294h-11.792c-1.268 0-2.294-1.028-2.294-2.295V16.07c0-1.267 1.026-2.293 2.294-2.293h11.79c1.267 0 2.294 1.027 2.294 2.293v5.795z"/><path fill="#fff" d="M495 0c-8.284 0-15 6.716-15 15 0 8.285 6.716 15 15 15s15-6.715 15-15c0-8.284-6.716-15-15-15zm4.44 8.825h-2.097c-.74 0-.895.303-.895 1.07v1.85h2.99l-.287 3.247h-2.702v9.7h-3.874v-9.66h-2.015v-3.288h2.014v-2.59c0-2.43 1.3-3.7 4.183-3.7h2.682v3.37z"/><path fill="#fff" d="M455 0c-8.284 0-15 6.716-15 15s6.716 15 15 15 15-6.716 15-15-6.716-15-15-15zm7.543 12.416c.22 4.893-3.43 10.35-9.888 10.35-1.965 0-3.794-.577-5.333-1.564 1.846.218 3.688-.294 5.15-1.44-1.52-.028-2.807-1.034-3.25-2.417.545.104 1.082.074 1.57-.06-1.672-.335-2.827-1.843-2.79-3.455.47.26 1.007.417 1.577.436-1.552-1.036-1.99-3.082-1.078-4.645 1.716 2.106 4.28 3.49 7.17 3.636-.507-2.176 1.144-4.27 3.39-4.27 1 0 1.904.42 2.54 1.098.792-.156 1.536-.446 2.208-.844-.26.812-.81 1.494-1.53 1.924.705-.083 1.376-.27 2-.547-.467.695-1.056 1.308-1.737 1.8z"/><circle fill="#C39D37" cx="615" cy="295" r="25"/><circle fill="#fff" cx="615.056" cy="308.735" r="3.561"/><path fill="#fff" d="M619.762 283.136c-.302 2.4-2.513 14.087-3.244 17.928-.135.71-.756 1.226-1.48 1.226h-.028c-.748 0-1.388-.53-1.527-1.267-.74-3.898-2.948-15.595-3.244-17.958-.358-2.845 1.862-5.36 4.73-5.36 2.903 0 5.153 2.548 4.792 5.43zM547.974 309.872l.09-6.112c-.54 0-1.19 0-1.415.022-.137.022-.182-.382-.113-.404 1.146-.764 2.11-1.708 3.056-2.74.02-.023.337.044.314.156-.045.428-.135 1.506-.18 2h1.19c.944 0 1.687 0 1.978-.09.18-.068.11 1.168-.158 1.123-.246-.045-.674-.067-1.527-.067h-1.482l-.09 5.595c-.023 1.303.63 1.707 1.596 1.707.493 0 1.1-.09 1.64-.224.045 0 .225.27.112.358-.967.585-2.29.9-2.92.9-1.486 0-2.115-.698-2.092-2.224zM540.744 312.084c-.18.045-.112-.403 0-.426 1.748-.18 1.904-.224 1.838-3.54l-.135-7.952-5.22 11.873c-.044.11-.313.155-.403-.024l-5.332-11.223-.135 7.325c-.044 2.958-.044 3.36 2.04 3.54.066 0 .134.47-.046.426-.692-.09-1.298-.135-2.26-.135-1.3 0-1.84 0-2.802.134-.18.045-.11-.403 0-.426 1.994-.224 2.084-.426 2.15-3.54l.156-7.863c.023-1.545-.783-2.262-2.486-2.44-.11-.023-.178-.45 0-.404 1.12.158 2.084.158 4.01.158l5.49 11.762 3.36-7.685c.647-1.48 1.276-2.935 1.59-4.123 1.478.112 2.91.046 4.01-.11.225-.023.112.402.044.402-2.33.2-2.307.337-2.238 3.562l.133 6.743c.067 3.226 0 3.337 2.353 3.54.067 0 .157.47-.022.425-.716-.09-2.016-.135-2.98-.135-1.3 0-2.128 0-3.114.134zM555.102 312.017c-1.062 2.41-1.756 4-1.756 5.145 0 .938.775 1.102 2.612 1.266.204 0 .286.857-.04.774-1.267-.162-2.205-.244-3.92-.244-2.408 0-2.45.04-4.164.244-.326.083-.164-.774-.04-.774 2.776-.204 3.796-1.92 5.836-6.492l8.86-19.72c.164-.325.693-.245.776 0l7.552 19.72c1.88 4.94 2.654 6.288 6.043 6.532.124.042.286.775-.122.734-1.264-.162-2.98-.244-4.695-.244-2.408 0-4.53.04-6.246.244-.326.083-.163-.774-.04-.774 1.878-.204 2.857-.164 2.857-1.266 0-1.225-.775-3.104-1.552-5.145l-1.225-3.268-.406-1.103-3.798-10.452-6.53 14.822z"/><path fill="#C39E06" d="M576.07 305.216c.048.35.204 1.178-.465 1.98-.366.44-.907.79-1.607 1.038-.857.303-1.96.458-3.278.458-.767 0-1.618-.052-2.534-.156-.78-.077-1.527-.117-2.22-.117-2.28 0-4.02.417-5.172 1.244-.782.562-1.257 1.304-1.36 2.12.28-.354.62-.625 1.01-.807.4-.187.857-.282 1.357-.282.577 0 1.19.122 1.818.36.794-.944 1.966-1.348 3.896-1.348.586 0 1.264.033 2.198.112.517.048 1.02.074 1.495.074.86 0 1.61-.08 2.235-.236.6-.15 1.206-.454 1.48-.803.08.738-.36 1.2-.702 1.454-.26.195-1.062.802-3.957.78-.135 0-.287-.006-.463-.012-.245-.008-.52-.018-.818-.018-.97 0-2.335.09-3.195.848l.252.117c.62.282 1.263.576 1.872.726.28.06.55.09.795.09.453 0 .817-.1 1.054-.284l.174-.136-.01.22c-.014.323-.215.612-.568.81-.334.19-.793.296-1.29.296-.214 0-.433-.02-.653-.055h-.004c-.554-.116-1.264-.38-1.948-.635l-.497-.184c-1.05 1.896-.19 3.446.015 3.655l.164.17-.243.002c-.355 0-1.135-.36-1.677-1.13-.438-.62-.842-1.686-.316-3.26-.265-.058-.53-.086-.79-.086-1.025 0-1.89.458-2.256 1.192-.386.777-.183 1.757.574 2.76l.123.16h-.204c-.513 0-1.037-.188-1.518-.545-.467-.345-.87-.834-1.17-1.41-.392-.758-.578-1.613-.54-2.473.048-.98.376-1.908.976-2.76.624-.88 1.56-1.523 2.784-1.913.97-.308 2.146-.463 3.496-.463 1.354 0 2.61.15 3.527.26.19.02.367.043.523.06 1.272.15 2.328.224 3.225.224 2.456.004 3.89-.583 4.414-2.094z"/><path fill="#1C5380" d="M418.557 54.142v2.212c0 .354-.293.64-.646.64h-2.16c-.355 0-.642-.286-.642-.64v-2.212c0-.354.287-.644.64-.644h2.163c.354 0 .647.29.647.644zm-8.293 10.9c1.627 0 2.95-1.32 2.95-2.95 0-1.627-1.323-2.95-2.95-2.95-1.633 0-2.95 1.323-2.95 2.95 0 1.63 1.317 2.95 2.95 2.95zM427.998 62c0 9.942-8.058 18-18 18-9.937 0-18-8.058-18-18s8.063-18 18-18c9.942 0 18 8.058 18 18zm-7.612-2.906h-5.912c.602.847.957 1.88.957 2.998 0 2.86-2.318 5.18-5.184 5.18-2.858 0-5.178-2.318-5.178-5.18 0-1.117.355-2.15.957-2.998h-5.885v9.077c0 2.213 1.793 4.006 4.005 4.006h12.235c2.213 0 4.005-1.793 4.005-4.005v-9.076zm-10.14 6.988c2.203 0 3.994-1.79 3.994-3.99 0-1.195-.53-2.268-1.365-2.998-.29-.257-.625-.47-.98-.634-.502-.23-1.06-.358-1.648-.358-.582 0-1.14.13-1.64.358-.364.163-.692.376-.983.634-.836.73-1.364 1.803-1.364 2.998 0 2.2 1.79 3.99 3.986 3.99zm10.14-10.252c0-2.212-1.792-4.005-4.005-4.005h-10.938v5.047h-.824v-5.047h-.472c-.032 0-.062 0-.095.002v5.045h-.817v-4.94c-.2.046-.392.106-.582.183v4.757h-.817v-4.31c-1.023.724-1.69 1.916-1.69 3.267v2.63h6.415c.94-.957 2.246-1.547 3.69-1.547 1.448 0 2.755.59 3.69 1.546h6.448v-2.63z"/><path fill="#CC181E" d="M316.765 64.704c-.41 0-.76.26-1.017.572v-2.68h-1.155v8.333h1.155v-.474c.318.398.667.55 1.087.55.76 0 1.044-.59 1.044-1.35v-3.414c0-.83-.28-1.538-1.115-1.538zm-.063 4.785c0 .194-.033.335-.1.422-.126.167-.398.158-.585.064-.087-.045-.178-.117-.27-.218v-3.832c.076-.083.156-.146.234-.186.203-.102.46-.083.598.102.083.107.123.265.123.47v3.177h.002zm-3.85-12.093v-3.003c0-.354.16-.616.498-.616.368 0 .526.256.526.616v3.003c0 .352-.18.612-.5.612-.333 0-.525-.274-.525-.613zm-.517 7.384h1.143v6.15h-1.143v-.68c-.21.252-.43.44-.66.573-.615.353-1.46.347-1.46-.9V64.78h1.143v4.714c0 .247.06.416.303.416.225 0 .536-.285.675-.46v-4.67zm-2.105-.975h-1.333v7.125h-1.287v-7.125h-1.333v-1.21h3.952v1.21zm10.248.82c-1.032 0-1.736.744-1.736 1.81v2.76c0 1.106.56 1.9 1.65 1.9 1.203 0 1.71-.715 1.71-1.9v-.462h-1.175v.427c0 .537-.027.86-.51.86-.462 0-.5-.397-.5-.86V68h2.186v-1.565c0-1.112-.53-1.81-1.625-1.81zm.45 2.42h-1.01v-.622c0-.422.087-.72.51-.72.41 0 .5.304.5.72v.622zM313.997 44c-9.938 0-18 8.058-18 18s8.062 18 18 18C323.942 80 332 71.942 332 62s-8.06-18-18-18zm2.12 8.607h1.2v4.948c0 .26.064.436.32.436.236 0 .56-.3.708-.484v-4.898h1.2v6.456h-1.2v-.714c-.52.617-1.026.806-1.388.806-.645 0-.84-.514-.84-1.15v-5.4zm-2.743-.053c.972 0 1.725.724 1.725 1.733v3.165c0 1.085-.76 1.73-1.725 1.73-1.164 0-1.76-.592-1.76-1.73v-3.165c.002-1.036.703-1.733 1.76-1.733zm-4.87-2.243l.933 3.5.865-3.5h1.373l-1.57 5.203v3.55h-1.354v-3.55l-1.61-5.202h1.364zm15.408 19.93c0 1.518-1.232 2.75-2.75 2.75h-14.15c-1.52 0-2.753-1.232-2.753-2.75v-6.956c0-1.52 1.232-2.75 2.753-2.75h14.15c1.518 0 2.75 1.232 2.75 2.75v6.955z"/><path fill="#3B579E" d="M266 44c-9.94 0-18 8.058-18 18 0 9.943 8.06 18 18 18s18-8.057 18-18c0-9.942-8.06-18-18-18zm5.328 10.588h-2.515c-.89 0-1.073.365-1.073 1.283v2.223h3.588l-.346 3.895h-3.242V73.63h-4.65V62.04h-2.416v-3.945h2.416v-3.108c0-2.917 1.56-4.44 5.02-4.44h3.218v4.043z"/><path fill="#37AAE3" d="M218 44c-9.942 0-18 8.058-18 18s8.058 18 18 18 18-8.058 18-18-8.058-18-18-18zm9.052 14.9c.264 5.872-4.115 12.417-11.866 12.417-2.357 0-4.552-.69-6.4-1.876 2.216.263 4.427-.352 6.18-1.727-1.824-.034-3.367-1.242-3.897-2.9.653.125 1.294.088 1.884-.07-2.007-.405-3.394-2.214-3.35-4.148.563.313 1.208.502 1.893.523-1.86-1.244-2.387-3.7-1.293-5.574 2.062 2.524 5.138 4.187 8.606 4.36-.61-2.61 1.372-5.126 4.066-5.126 1.203 0 2.286.507 3.05 1.318.95-.186 1.843-.534 2.65-1.01-.312.972-.975 1.792-1.837 2.307.844-.1 1.65-.327 2.398-.656-.56.837-1.27 1.573-2.086 2.163z"/><path fill="#862633" d="M153.546 62.282c0 2.14-1.74 3.88-3.88 3.88-2.142 0-3.882-1.74-3.882-3.88s1.74-3.88 3.88-3.88c2.14 0 3.882 1.74 3.882 3.88zm8.908-9.42v19.442h-30v-19.44h8.244c.82 0 1.57-.46 1.944-1.19l1.305-2.543h11.188l1.443 2.607c.385.695 1.117 1.126 1.912 1.126h3.964zm-22.366 4.242c0-.824-.67-1.493-1.493-1.493s-1.492.67-1.492 1.494c0 .825.668 1.493 1.492 1.493s1.493-.668 1.493-1.493zm16.796 5.178c0-3.98-3.238-7.053-7.22-7.053s-7.22 3.07-7.22 7.052c0 3.98 3.24 7.22 7.22 7.22s7.22-3.24 7.22-7.22zm-17.706-12.586h-4.77v1.966h4.77v-1.966z"/><path fill="none" d="M126 40h42v42h-42z"/><path fill-rule="evenodd" clip-rule="evenodd" fill="#fff" d="M60 99v8l7-4-7-4z"/><path fill="none" d="M42 82h42v42H42zM84 82h42v42H84z"/><path fill-rule="evenodd" clip-rule="evenodd" fill="#fff" d="M102 107h2v-8h-2v8zm4-8v8h2v-8h-2z"/><path fill="none" d="M0 124h42v42H0z"/><path fill-rule="evenodd" clip-rule="evenodd" fill="#862633" d="M23.122 147.12v3.76c0 1.17-.95 2.12-2.12 2.12s-2.122-.95-2.122-2.12v-3.76h-3.76c-1.17 0-2.12-.947-2.12-2.12 0-1.17.95-2.12 2.12-2.12h3.76v-3.76c0-1.17.95-2.12 2.12-2.12s2.122.95 2.122 2.12v3.76h3.757c1.17 0 2.12.95 2.12 2.12 0 1.172-.95 2.12-2.12 2.12H23.12zM65.122 143h3.757c1.17 0 2.12.95 2.12 2.12 0 1.172-.95 2.12-2.12 2.12H57.12c-1.17 0-2.12-.947-2.12-2.12 0-1.17.95-2.12 2.12-2.12H65.123z"/><path fill="none" d="M42 124h42v42H42z"/><path fill="#fff" d="M362 0c-9.94 0-18 8.06-18 18s8.06 18 18 18 18-8.06 18-18-8.06-18-18-18zm-5.626 28.167h-4.223V14.585h4.224v13.582zm-2.11-15.438c-1.354 0-2.447-1.098-2.447-2.45 0-1.35 1.094-2.446 2.447-2.446 1.35 0 2.446 1.097 2.446 2.447 0 1.352-1.097 2.45-2.446 2.45zm17.92 15.437h-4.217v-6.604c0-1.576-.03-3.602-2.193-3.602-2.196 0-2.532 1.717-2.532 3.488v6.72h-4.22V14.584h4.05v1.855h.058c.563-1.067 1.94-2.194 3.994-2.194 4.27 0 5.06 2.812 5.06 6.47v7.45zM575 0c-8.284 0-15 6.716-15 15s6.716 15 15 15 15-6.716 15-15-6.716-15-15-15zm-4.688 23.472h-3.52V12.154h3.52v11.318zm-1.76-12.865c-1.127 0-2.038-.914-2.038-2.04 0-1.125.91-2.04 2.04-2.04 1.124 0 2.037.915 2.037 2.04 0 1.126-.912 2.04-2.037 2.04zm14.934 12.865h-3.514v-5.504c0-1.313-.025-3-1.828-3-1.83 0-2.11 1.43-2.11 2.905v5.6h-3.516v-11.32h3.374V13.7h.048c.47-.89 1.618-1.828 3.33-1.828 3.56 0 4.216 2.344 4.216 5.392v6.208z"/><path fill="#007BB5" d="M362 44c-9.94 0-18 8.06-18 18s8.06 18 18 18 18-8.06 18-18-8.06-18-18-18zm-5.626 28.167h-4.223V58.585h4.224v13.582zm-2.11-15.438c-1.354 0-2.447-1.098-2.447-2.45 0-1.35 1.094-2.446 2.447-2.446 1.35 0 2.446 1.097 2.446 2.447 0 1.352-1.097 2.45-2.446 2.45zm17.92 15.437h-4.217v-6.604c0-1.576-.03-3.602-2.193-3.602-2.196 0-2.532 1.717-2.532 3.488v6.72h-4.22V58.584h4.05v1.855h.058c.563-1.067 1.94-2.194 3.994-2.194 4.27 0 5.06 2.812 5.06 6.47v7.45z"/><g><circle fill="#F9F9F9" stroke="#D9D8D7" stroke-miterlimit="10" cx="146.5" cy="102.5" r="12.5"/><circle fill="#F9F9F9" stroke="#D9D8D7" stroke-miterlimit="10" cx="146.5" cy="144.5" r="12.5"/><circle fill="#97012E" cx="146.5" cy="144.5" r="5.51"/><path stroke="#3F4A51" stroke-width="2" stroke-linecap="round" stroke-linejoin="round" stroke-miterlimit="10" fill="none" d="M99 133l5.5 5.6 5.5-5.6"/><path stroke="#97012E" stroke-width="2" stroke-linecap="round" stroke-linejoin="round" stroke-miterlimit="10" fill="none" d="M99 151l5.5 5.6 5.5-5.6"/><defs><path id="a" d="M8 171h25v24.497H8z"/></defs><clipPath id="b"><use xlink:href="#a" overflow="visible"/></clipPath><path clip-path="url(#b)" fill="#5C5C5C" d="M16.947 185.672h-3.574v-3.574h3.574v3.574zm5.4-3.574h-3.573v3.574h3.574v-3.574zm5.402 0h-3.576v3.574h3.575v-3.574zm-10.803 5.218h-3.574v3.575h3.574v-3.574zm5.4 0h-3.573v3.575h3.574v-3.574zm5.4 0h-3.573v3.575h3.574v-3.574zm1.333-12.434c0 .61-.494 1.103-1.103 1.103s-1.103-.494-1.103-1.103v-2.775c0-.61.494-1.103 1.103-1.103s1.103.494 1.103 1.103v2.775zm-14.897-2.78c0-.608-.494-1.102-1.103-1.102s-1.103.494-1.103 1.103v2.775c0 .61.494 1.103 1.103 1.103s1.103-.493 1.103-1.102v-2.775zm16.23 1.61v1.13c0 1.343-1.093 2.435-2.436 2.435s-2.436-1.092-2.436-2.435v-1.13H15.516v1.125c0 1.343-1.092 2.436-2.435 2.436s-2.436-1.093-2.436-2.436v-1.125H8v21.784h25v-21.784h-2.588zm.16 19.357H10.427v-13.5h20.146v13.5z"/></g><path fill="none" d="M126 82h42v42h-42zM126 124h42v42h-42z"/></svg>